/* XPM */
static char * lindenmayer32_xpm[] = {
"32 32 10 1",
" 	c #FFFFFF",
".	c #CCFFCC",
"+	c #99FF99",
"@	c #66FF66",
"#	c #33FF33",
"$	c #00FF00",
"%	c #00CC00",
"&	c #339933",
"*	c #CCCCCC",
"=	c #99CC99",
"                                ",
"                                ",
"                                ",
"                 .              ",
"                 .              ",
"          ++  .+  +++  +        ",
"        .+.@.+@@@#@ #@#++       ",
"   .. +   .+@#@#@+##@#@.        ",
"   . . @... @#@.+#@#@#+@..      ",
"  ++@.+@@++.@#@#+$$$#+##++      ",
"  +@#@+ .#+.#@+ +#+#+#.@@#++    ",
". ++@@@+ #+@@# +@.$##++####@+ . ",
" + @ +@.+  @    @@@## @@###@+.  ",
" @@.+# +   +   @ #.... #@###@   ",
" ++@@.+.. .   @@@@#@@@# ++$+@+  ",
".. ++ + +    #   @   . .@+###@  ",
" ++. @#@+    @   $ @ ####+$$#@. ",
"  .     @ . #    @ # # @# .###+ ",
"         #+ @   #@@.+    ++@@.+.",
"          ##    @. .      @@#.@+",
"          ##    $+#+...##$++$$# ",
"           @    . $      @#@@$. ",
"            %    #       ++@+. @",
"             # % #       @ #@@@ ",
"             % .%        + ##. +",
"              #.            +.@.",
"              &*           + .  ",
"              &&                ",
"              &=                ",
"              &=                ",
"              &=                ",
"              &=                "};
