/* XPM */
static char * lindenmayer16_xpm[] = {
"16 16 8 1",
" 	c #FFFFFF",
".	c #CCFFCC",
"+	c #66FF66",
"@	c #33FF33",
"#	c #99FF99",
"$	c #00FF00",
"%	c #00CC00",
"&	c #339933",
"                ",
"                ",
"                ",
"    ...+++@@#   ",
"    ..++#++#.   ",
" #@#.#@####.+#  ",
"   +#   ++@+@@# ",
" #+#.. ++@+@#$+ ",
" # @#+     @@$@.",
"     #+ @+#  #+#",
"     @  $@..@#$@",
"      % &    ## ",
"       &%     @ ",
"       &        ",
"       &        ",
"       &        "};
